<?xml version="1.0" encoding="utf-8"?>
<!-- Generator: Adobe Illustrator 25.2.1, SVG Export Plug-In . SVG Version: 6.00 Build 0)  -->
<svg version="1.1" id="Layer_1" xmlns="http://www.w3.org/2000/svg" xmlns:xlink="http://www.w3.org/1999/xlink" x="0px" y="0px"
	 viewBox="0 0 600.8 118.46" style="enable-background:new 0 0 600.8 118.46;" xml:space="preserve">
<style type="text/css">
	.st0{fill:#2B4E7F;}
	.st1{fill:#026BA5;}
	.st2{fill:#FF812C;}
	.st3{fill:#BFBFBF;}
	.st4{fill:#999999;}
	.st5{fill:#F8FBFF;}
	.st6{opacity:0.5;}
	.st7{fill:#153459;}
	.st8{opacity:0.3;}
	.st9{opacity:0.2;}
</style>
<g>
	<g class="st6">
		<path class="st7" d="M90.28,108.79c0.19,1.49-0.56,2.59-2.23,3.29c-1.39,0.7-3.21,1.05-5.44,1.05c-2.33,0-4.18-0.35-5.58-1.05
			c-1.67-0.8-2.42-1.89-2.23-3.29V38.94l-19.95,33.5c-1.58,2.89-3.81,4.24-6.69,4.04c-3.07,0-5.35-1.35-6.83-4.04L21.52,39.68v69.1
			c0.19,1.49-0.56,2.59-2.23,3.29c-1.39,0.7-3.26,1.05-5.58,1.05c-2.33,0-4.18-0.35-5.58-1.05c-1.68-0.7-2.42-1.8-2.23-3.29V14.71
			c0-4.39,2.46-6.58,7.39-6.58c3.25,0,6.09,1.9,8.51,5.68l26.36,43.37l26.36-43.37c2.23-3.79,5.07-5.68,8.51-5.68
			c4.83,0,7.25,2.15,7.25,6.43V108.79z"/>
		<path class="st7" d="M119.77,104.75c-5.75-6.48-8.63-15.31-8.63-26.47V12.46c-0.19-1.39,0.6-2.49,2.35-3.29
			c1.38-0.7,3.27-1.05,5.67-1.05c2.39,0,4.28,0.35,5.67,1.05c1.66,0.7,2.4,1.8,2.21,3.3v66.52c0,6.49,1.49,11.59,4.48,15.28
			c2.89,3.6,7.01,5.39,12.33,5.39c5.32,0,9.52-1.8,12.6-5.39c2.99-3.69,4.48-8.79,4.48-15.28V12.47c-0.19-1.4,0.6-2.5,2.35-3.3
			c1.38-0.7,3.27-1.05,5.67-1.05c2.39,0,4.28,0.35,5.67,1.05c1.66,0.7,2.4,1.79,2.21,3.29v65.81c0,11.27-2.92,20.09-8.77,26.47
			c-5.66,6.38-13.73,9.57-24.22,9.57C133.46,114.32,125.43,111.13,119.77,104.75z"/>
		<path class="st7" d="M205.29,112.82c-2.06,0-3.8-0.8-5.21-2.39c-1.5-1.59-2.25-3.59-2.25-5.98V12.46
			c-0.19-1.5,0.57-2.59,2.25-3.29c1.41-0.7,3.33-1.05,5.77-1.05c2.44,0,4.36,0.35,5.77,1.05c1.69,0.7,2.43,1.79,2.25,3.29
			l-0.14,85.7h38.08c1.3-0.2,2.32,0.5,3.07,2.09c0.65,1.3,0.98,3.04,0.98,5.24c0,2.19-0.33,3.94-0.98,5.23
			c-0.75,1.6-1.77,2.29-3.07,2.09H205.29z"/>
		<path class="st7" d="M311.92,8.57c1.3-0.2,2.32,0.5,3.07,2.09c0.65,1.3,0.98,2.94,0.98,4.93c0,2-0.33,3.64-0.98,4.94
			c-0.75,1.6-1.77,2.3-3.07,2.09h-22.32l-0.14,86c0.19,1.5-0.56,2.59-2.23,3.29c-1.67,0.8-3.53,1.2-5.58,1.2
			c-2.05,0-3.91-0.4-5.58-1.2c-1.77-0.8-2.56-1.89-2.37-3.29l-0.14-86h-21.76c-1.3,0.2-2.33-0.5-3.07-2.09
			c-0.65-1.3-0.98-2.94-0.98-4.94c0-1.99,0.32-3.64,0.98-4.93c0.74-1.59,1.77-2.29,3.07-2.09H311.92z"/>
		<path class="st7" d="M340.06,10.67c0-1.7,1.25-2.54,3.77-2.54c2.42,0,3.63,0.85,3.63,2.54v100.06c0,1.6-1.21,2.39-3.63,2.39
			c-2.51,0-3.77-0.8-3.77-2.39V10.67z"/>
		<g>
			<path class="st7" d="M429.6,69.15c4.01,4.69,6.01,10.37,6.01,17.05c0,7.98-2.65,14.66-7.95,20.04
				c-5.49,5.39-12.6,8.08-21.34,8.08c-10.88,0-20.18-3.99-27.89-11.97c-1.21-1.59-1.07-3.29,0.42-5.09
				c1.49-1.89,2.88-2.24,4.18-1.05c7.35,6.98,15.11,10.47,23.29,10.47c6.14,0,11.25-1.89,15.34-5.68c4.09-3.79,6.14-8.53,6.14-14.21
				c0-2.19-0.51-4.64-1.54-7.33c-0.65-1.79-1.68-3.69-3.08-5.68c-1.12-1.3-2.94-2.94-5.46-4.94l-3.36-2.24l-0.7-0.45l-0.56-0.45
				c-0.19-0.2-0.37-0.32-0.56-0.37c-0.19-0.05-0.33-0.12-0.42-0.23c-0.47-0.2-1.26-0.6-2.38-1.2c-1.12-0.6-2.47-1.39-4.06-2.39
				c-6.63-3.69-11.99-7.43-16.1-11.22c-5.21-4.88-7.81-11.12-7.81-18.7c0-7.18,2.46-13.11,7.39-17.8
				c4.85-4.49,11.29-6.73,19.32-6.73c9.24,0,16.93,3.14,23.08,9.42c1.12,1.3,0.98,2.89-0.42,4.79c-1.49,1.9-2.93,2.15-4.32,0.75
				c-5.51-5.39-11.67-8.08-18.48-8.08c-5.6,0-10.13,1.55-13.58,4.64c-3.74,3.09-5.6,7.28-5.6,12.56c0,7.08,4.15,13.41,12.45,19
				c0.56,0.4,3.96,2.44,10.21,6.13c4.2,2.3,7.77,4.51,10.7,6.66C425.48,65.09,427.83,67.16,429.6,69.15z"/>
			<path class="st7" d="M448.48,10.67c0-1.7,1.25-2.54,3.77-2.54c2.42,0,3.63,0.85,3.63,2.54v100.06c0,1.6-1.21,2.39-3.63,2.39
				c-2.51,0-3.77-0.8-3.77-2.39V10.67z"/>
			<path class="st7" d="M531.92,8.57c1.39,0,2.09,1.2,2.09,3.59c0,2.39-0.7,3.59-2.09,3.59H503.6v94.98c0,1.6-1.21,2.39-3.63,2.39
				c-2.51,0-3.77-0.8-3.77-2.39V15.75H468.6c-1.58,0-2.37-1.2-2.37-3.59c0-2.39,0.79-3.59,2.37-3.59H531.92z"/>
			<path class="st7" d="M544.39,112.82c-2.05,0-3.07-1.15-3.07-3.44V12.01c0-2.29,1.02-3.44,3.07-3.44h46.58
				c1.49,0,2.23,1.2,2.23,3.59c0,2.39-0.74,3.59-2.23,3.59h-42.26v41.13h38.91c1.58,0,2.37,1.2,2.37,3.59
				c0,2.39-0.79,3.59-2.37,3.59h-38.91v41.58h42.26c1.49,0,2.23,1.2,2.23,3.59s-0.74,3.59-2.23,3.59H544.39z"/>
		</g>
	</g>
	<g class="st8">
		<path class="st7" d="M95.31,110.81c0.19,1.49-0.56,2.59-2.23,3.29c-1.39,0.7-3.21,1.05-5.44,1.05c-2.33,0-4.18-0.35-5.58-1.05
			c-1.67-0.8-2.42-1.89-2.23-3.29V40.96l-19.95,33.5c-1.58,2.89-3.81,4.24-6.69,4.04c-3.07,0-5.35-1.35-6.83-4.04L26.55,41.7v69.1
			c0.19,1.49-0.56,2.59-2.23,3.29c-1.39,0.7-3.26,1.05-5.58,1.05c-2.33,0-4.18-0.35-5.58-1.05c-1.68-0.7-2.42-1.8-2.23-3.29V16.73
			c0-4.39,2.46-6.58,7.39-6.58c3.25,0,6.09,1.9,8.51,5.68L53.19,59.2l26.36-43.37c2.23-3.79,5.07-5.68,8.51-5.68
			c4.83,0,7.25,2.15,7.25,6.43V110.81z"/>
		<path class="st7" d="M124.8,106.77c-5.75-6.48-8.63-15.31-8.63-26.47V14.48c-0.19-1.39,0.6-2.49,2.35-3.29
			c1.38-0.7,3.27-1.05,5.67-1.05c2.39,0,4.28,0.35,5.67,1.05c1.66,0.7,2.4,1.8,2.21,3.3v66.52c0,6.49,1.49,11.59,4.48,15.28
			c2.89,3.6,7.01,5.39,12.33,5.39c5.32,0,9.52-1.8,12.6-5.39c2.99-3.69,4.48-8.79,4.48-15.28V14.49c-0.19-1.4,0.6-2.5,2.35-3.3
			c1.38-0.7,3.27-1.05,5.67-1.05c2.39,0,4.28,0.35,5.67,1.05c1.66,0.7,2.4,1.79,2.21,3.29v65.81c0,11.27-2.92,20.09-8.77,26.47
			c-5.66,6.38-13.73,9.57-24.22,9.57C138.48,116.34,130.46,113.15,124.8,106.77z"/>
		<path class="st7" d="M210.32,114.84c-2.06,0-3.8-0.8-5.21-2.39c-1.5-1.59-2.25-3.59-2.25-5.98V14.48
			c-0.19-1.5,0.56-2.59,2.25-3.29c1.41-0.7,3.33-1.05,5.77-1.05c2.44,0,4.36,0.35,5.77,1.05c1.69,0.7,2.43,1.79,2.25,3.29
			l-0.14,85.7h38.08c1.3-0.2,2.32,0.5,3.07,2.09c0.65,1.3,0.98,3.04,0.98,5.24c0,2.19-0.33,3.94-0.98,5.23
			c-0.75,1.6-1.77,2.29-3.07,2.09H210.32z"/>
		<path class="st7" d="M316.95,10.59c1.3-0.2,2.32,0.5,3.07,2.09c0.65,1.3,0.98,2.94,0.98,4.93c0,2-0.33,3.64-0.98,4.94
			c-0.75,1.6-1.77,2.3-3.07,2.09h-22.32l-0.14,86c0.19,1.5-0.56,2.59-2.23,3.29c-1.67,0.8-3.53,1.2-5.58,1.2
			c-2.05,0-3.91-0.4-5.58-1.2c-1.77-0.8-2.56-1.89-2.37-3.29l-0.14-86h-21.76c-1.3,0.2-2.33-0.5-3.07-2.09
			c-0.65-1.3-0.98-2.94-0.98-4.94c0-1.99,0.32-3.64,0.98-4.93c0.74-1.59,1.77-2.29,3.07-2.09H316.95z"/>
		<path class="st7" d="M345.09,12.69c0-1.7,1.25-2.54,3.77-2.54c2.42,0,3.63,0.85,3.63,2.54v100.06c0,1.6-1.21,2.39-3.63,2.39
			c-2.51,0-3.77-0.8-3.77-2.39V12.69z"/>
		<g>
			<path class="st7" d="M434.63,71.17c4.01,4.69,6.01,10.37,6.01,17.05c0,7.98-2.65,14.66-7.95,20.04
				c-5.49,5.39-12.6,8.08-21.34,8.08c-10.88,0-20.18-3.99-27.89-11.97c-1.21-1.59-1.07-3.29,0.42-5.09
				c1.49-1.89,2.88-2.24,4.18-1.05c7.35,6.98,15.11,10.47,23.29,10.47c6.14,0,11.25-1.89,15.34-5.68c4.09-3.79,6.14-8.53,6.14-14.21
				c0-2.19-0.51-4.64-1.54-7.33c-0.65-1.79-1.68-3.69-3.08-5.68c-1.12-1.3-2.94-2.94-5.46-4.94l-3.36-2.24l-0.7-0.45l-0.56-0.45
				c-0.19-0.2-0.37-0.32-0.56-0.37c-0.19-0.05-0.33-0.12-0.42-0.23c-0.47-0.2-1.26-0.6-2.38-1.2c-1.12-0.6-2.47-1.39-4.06-2.39
				c-6.63-3.69-11.99-7.43-16.1-11.22c-5.21-4.88-7.81-11.12-7.81-18.7c0-7.18,2.46-13.11,7.39-17.8
				c4.85-4.49,11.29-6.73,19.32-6.73c9.24,0,16.93,3.14,23.08,9.42c1.12,1.3,0.98,2.89-0.42,4.79c-1.49,1.9-2.93,2.15-4.32,0.75
				c-5.51-5.39-11.67-8.08-18.48-8.08c-5.6,0-10.13,1.55-13.58,4.64c-3.74,3.09-5.6,7.28-5.6,12.56c0,7.08,4.15,13.41,12.45,19
				c0.56,0.4,3.96,2.44,10.21,6.13c4.2,2.3,7.77,4.51,10.7,6.66C430.51,67.11,432.86,69.18,434.63,71.17z"/>
			<path class="st7" d="M453.51,12.69c0-1.7,1.25-2.54,3.77-2.54c2.42,0,3.63,0.85,3.63,2.54v100.06c0,1.6-1.21,2.39-3.63,2.39
				c-2.51,0-3.77-0.8-3.77-2.39V12.69z"/>
			<path class="st7" d="M536.94,10.59c1.39,0,2.09,1.2,2.09,3.59c0,2.39-0.7,3.59-2.09,3.59h-28.31v94.98c0,1.6-1.21,2.39-3.63,2.39
				c-2.51,0-3.77-0.8-3.77-2.39V17.77h-27.62c-1.58,0-2.37-1.2-2.37-3.59c0-2.39,0.79-3.59,2.37-3.59H536.94z"/>
			<path class="st7" d="M549.42,114.84c-2.05,0-3.07-1.15-3.07-3.44V14.03c0-2.29,1.02-3.44,3.07-3.44H596
				c1.49,0,2.23,1.2,2.23,3.59c0,2.39-0.74,3.59-2.23,3.59h-42.26V58.9h38.91c1.58,0,2.37,1.2,2.37,3.59s-0.79,3.59-2.37,3.59
				h-38.91v41.58H596c1.49,0,2.23,1.2,2.23,3.59c0,2.39-0.74,3.59-2.23,3.59H549.42z"/>
		</g>
	</g>
	<g class="st9">
		<path class="st7" d="M98.35,113.84c0.19,1.49-0.56,2.59-2.23,3.29c-1.39,0.7-3.21,1.05-5.44,1.05c-2.33,0-4.18-0.35-5.58-1.05
			c-1.67-0.8-2.42-1.89-2.23-3.29V43.99L62.92,77.5c-1.58,2.89-3.81,4.24-6.69,4.04c-3.07,0-5.35-1.35-6.83-4.04L29.59,44.74v69.1
			c0.19,1.49-0.56,2.59-2.23,3.29c-1.39,0.7-3.26,1.05-5.58,1.05c-2.33,0-4.18-0.35-5.58-1.05c-1.68-0.7-2.42-1.8-2.23-3.29V19.76
			c0-4.39,2.46-6.58,7.39-6.58c3.25,0,6.09,1.9,8.51,5.68l26.36,43.37l26.36-43.37c2.23-3.79,5.07-5.68,8.51-5.68
			c4.83,0,7.25,2.15,7.25,6.43V113.84z"/>
		<path class="st7" d="M127.84,109.8c-5.75-6.48-8.63-15.31-8.63-26.47V17.52c-0.19-1.39,0.6-2.49,2.35-3.29
			c1.38-0.7,3.27-1.05,5.67-1.05c2.39,0,4.28,0.35,5.67,1.05c1.66,0.7,2.4,1.8,2.21,3.3v66.52c0,6.49,1.49,11.59,4.48,15.28
			c2.89,3.6,7.01,5.39,12.33,5.39c5.32,0,9.52-1.8,12.6-5.39c2.99-3.69,4.48-8.79,4.48-15.28V17.53c-0.19-1.4,0.6-2.5,2.35-3.3
			c1.38-0.7,3.27-1.05,5.67-1.05c2.39,0,4.28,0.35,5.67,1.05c1.66,0.7,2.4,1.79,2.21,3.29v65.81c0,11.27-2.92,20.09-8.77,26.47
			c-5.66,6.38-13.73,9.57-24.22,9.57C141.52,119.38,133.5,116.19,127.84,109.8z"/>
		<path class="st7" d="M213.36,117.88c-2.06,0-3.8-0.8-5.21-2.39c-1.5-1.59-2.25-3.59-2.25-5.98V17.52
			c-0.19-1.5,0.57-2.59,2.25-3.29c1.41-0.7,3.33-1.05,5.77-1.05c2.44,0,4.36,0.35,5.77,1.05c1.69,0.7,2.43,1.79,2.25,3.29
			l-0.14,85.7h38.08c1.3-0.2,2.32,0.5,3.07,2.09c0.65,1.3,0.98,3.04,0.98,5.24c0,2.19-0.33,3.94-0.98,5.23
			c-0.75,1.6-1.77,2.29-3.07,2.09H213.36z"/>
		<path class="st7" d="M319.99,13.63c1.3-0.2,2.32,0.5,3.07,2.09c0.65,1.3,0.98,2.94,0.98,4.93c0,2-0.33,3.64-0.98,4.94
			c-0.75,1.6-1.77,2.3-3.07,2.09h-22.32l-0.14,86c0.19,1.5-0.56,2.59-2.23,3.29c-1.67,0.8-3.53,1.2-5.58,1.2
			c-2.05,0-3.91-0.4-5.58-1.2c-1.77-0.8-2.56-1.89-2.37-3.29l-0.14-86h-21.76c-1.3,0.2-2.33-0.5-3.07-2.09
			c-0.65-1.3-0.98-2.94-0.98-4.94c0-1.99,0.32-3.64,0.98-4.93c0.74-1.59,1.77-2.29,3.07-2.09H319.99z"/>
		<path class="st7" d="M348.13,15.73c0-1.7,1.25-2.54,3.77-2.54c2.42,0,3.63,0.85,3.63,2.54v100.06c0,1.6-1.21,2.39-3.63,2.39
			c-2.51,0-3.77-0.8-3.77-2.39V15.73z"/>
		<g>
			<path class="st7" d="M437.67,74.21c4.01,4.69,6.01,10.37,6.01,17.05c0,7.98-2.65,14.66-7.95,20.04
				c-5.49,5.39-12.6,8.08-21.34,8.08c-10.88,0-20.18-3.99-27.89-11.97c-1.21-1.59-1.07-3.29,0.42-5.09
				c1.49-1.89,2.88-2.24,4.18-1.05c7.35,6.98,15.11,10.47,23.29,10.47c6.14,0,11.25-1.89,15.34-5.68c4.09-3.79,6.14-8.53,6.14-14.21
				c0-2.19-0.51-4.64-1.54-7.33c-0.65-1.79-1.68-3.69-3.08-5.68c-1.12-1.3-2.94-2.94-5.46-4.94l-3.36-2.24l-0.7-0.45l-0.56-0.45
				c-0.19-0.2-0.37-0.32-0.56-0.37c-0.19-0.05-0.33-0.12-0.42-0.23c-0.47-0.2-1.26-0.6-2.38-1.2c-1.12-0.6-2.47-1.39-4.06-2.39
				c-6.63-3.69-11.99-7.43-16.1-11.22c-5.21-4.88-7.81-11.12-7.81-18.7c0-7.18,2.46-13.11,7.39-17.8
				c4.85-4.49,11.29-6.73,19.32-6.73c9.24,0,16.93,3.14,23.08,9.42c1.12,1.3,0.98,2.89-0.42,4.79c-1.49,1.9-2.93,2.15-4.32,0.75
				c-5.51-5.39-11.67-8.08-18.48-8.08c-5.6,0-10.13,1.55-13.58,4.64c-3.74,3.09-5.6,7.28-5.6,12.56c0,7.08,4.15,13.41,12.45,19
				c0.56,0.4,3.96,2.44,10.21,6.13c4.2,2.3,7.77,4.51,10.7,6.66C433.54,70.15,435.9,72.21,437.67,74.21z"/>
			<path class="st7" d="M456.55,15.73c0-1.7,1.25-2.54,3.77-2.54c2.42,0,3.63,0.85,3.63,2.54v100.06c0,1.6-1.21,2.39-3.63,2.39
				c-2.51,0-3.77-0.8-3.77-2.39V15.73z"/>
			<path class="st7" d="M539.98,13.63c1.39,0,2.09,1.2,2.09,3.59c0,2.39-0.7,3.59-2.09,3.59h-28.31v94.98c0,1.6-1.21,2.39-3.63,2.39
				c-2.51,0-3.77-0.8-3.77-2.39V20.81h-27.62c-1.58,0-2.37-1.2-2.37-3.59c0-2.39,0.79-3.59,2.37-3.59H539.98z"/>
			<path class="st7" d="M552.46,117.88c-2.05,0-3.07-1.15-3.07-3.44V17.07c0-2.29,1.02-3.44,3.07-3.44h46.58
				c1.49,0,2.23,1.2,2.23,3.59c0,2.39-0.74,3.59-2.23,3.59h-42.26v41.13h38.91c1.58,0,2.37,1.2,2.37,3.59
				c0,2.39-0.79,3.59-2.37,3.59h-38.91v41.58h42.26c1.49,0,2.23,1.2,2.23,3.59c0,2.39-0.74,3.59-2.23,3.59H552.46z"/>
		</g>
	</g>
	<g>
		<path class="st5" d="M84.9,101.83c0.19,1.49-0.56,2.59-2.23,3.29c-1.39,0.7-3.21,1.05-5.44,1.05c-2.33,0-4.18-0.35-5.58-1.05
			c-1.67-0.8-2.42-1.89-2.23-3.29V31.99l-19.95,33.5c-1.58,2.89-3.81,4.24-6.69,4.04c-3.07,0-5.35-1.35-6.83-4.04L16.14,32.73v69.1
			c0.19,1.49-0.56,2.59-2.23,3.29c-1.39,0.7-3.26,1.05-5.58,1.05c-2.33,0-4.18-0.35-5.58-1.05c-1.68-0.7-2.42-1.8-2.23-3.29V7.75
			c0-4.39,2.46-6.58,7.39-6.58c3.25,0,6.09,1.9,8.51,5.68l26.36,43.37L69.14,6.86c2.23-3.79,5.07-5.68,8.51-5.68
			c4.83,0,7.25,2.15,7.25,6.43V101.83z"/>
		<path class="st5" d="M114.39,97.8c-5.75-6.48-8.63-15.31-8.63-26.47V5.51c-0.19-1.39,0.6-2.49,2.35-3.29
			c1.38-0.7,3.27-1.05,5.67-1.05c2.39,0,4.28,0.35,5.67,1.05c1.66,0.7,2.4,1.8,2.21,3.3v66.52c0,6.49,1.49,11.59,4.48,15.28
			c2.89,3.6,7.01,5.39,12.33,5.39c5.32,0,9.52-1.8,12.6-5.39c2.99-3.69,4.48-8.79,4.48-15.28V5.52c-0.19-1.4,0.6-2.5,2.35-3.3
			c1.38-0.7,3.27-1.05,5.67-1.05c2.39,0,4.28,0.35,5.67,1.05c1.66,0.7,2.4,1.79,2.21,3.29v65.81c0,11.27-2.92,20.09-8.77,26.47
			c-5.66,6.38-13.73,9.57-24.22,9.57C128.08,107.37,120.05,104.18,114.39,97.8z"/>
		<path class="st5" d="M199.91,105.87c-2.06,0-3.8-0.8-5.21-2.39c-1.5-1.59-2.25-3.59-2.25-5.98V5.51c-0.19-1.5,0.56-2.59,2.25-3.29
			c1.41-0.7,3.33-1.05,5.77-1.05c2.44,0,4.36,0.35,5.77,1.05c1.69,0.7,2.43,1.79,2.25,3.29l-0.14,85.7h38.08
			c1.3-0.2,2.32,0.5,3.07,2.09c0.65,1.3,0.98,3.04,0.98,5.24c0,2.19-0.33,3.94-0.98,5.23c-0.75,1.6-1.77,2.29-3.07,2.09H199.91z"/>
		<path class="st5" d="M306.55,1.62c1.3-0.2,2.32,0.5,3.07,2.09c0.65,1.3,0.98,2.94,0.98,4.93c0,2-0.33,3.64-0.98,4.94
			c-0.75,1.6-1.77,2.3-3.07,2.09h-22.32l-0.14,86c0.19,1.5-0.56,2.59-2.23,3.29c-1.67,0.8-3.53,1.2-5.58,1.2
			c-2.05,0-3.91-0.4-5.58-1.2c-1.77-0.8-2.56-1.89-2.37-3.29l-0.14-86h-21.76c-1.3,0.2-2.33-0.5-3.07-2.09
			c-0.65-1.3-0.98-2.94-0.98-4.94c0-1.99,0.32-3.64,0.98-4.93c0.74-1.59,1.77-2.29,3.07-2.09H306.55z"/>
		<path class="st4" d="M334.69,3.72c0-1.7,1.25-2.54,3.77-2.54c2.42,0,3.63,0.85,3.63,2.54v100.06c0,1.6-1.21,2.39-3.63,2.39
			c-2.51,0-3.77-0.8-3.77-2.39V3.72z"/>
		<g>
			<path class="st5" d="M424.23,62.2c4.01,4.69,6.01,10.37,6.01,17.05c0,7.98-2.65,14.66-7.95,20.04
				c-5.49,5.39-12.6,8.08-21.34,8.08c-10.88,0-20.18-3.99-27.89-11.97c-1.21-1.59-1.07-3.29,0.42-5.09
				c1.49-1.89,2.88-2.24,4.18-1.05c7.35,6.98,15.11,10.47,23.29,10.47c6.14,0,11.25-1.89,15.34-5.68c4.09-3.79,6.14-8.53,6.14-14.21
				c0-2.19-0.51-4.64-1.54-7.33c-0.65-1.79-1.68-3.69-3.08-5.68c-1.12-1.3-2.94-2.94-5.46-4.94l-3.36-2.24l-0.7-0.45l-0.56-0.45
				c-0.19-0.2-0.37-0.32-0.56-0.37c-0.19-0.05-0.33-0.12-0.42-0.23c-0.47-0.2-1.26-0.6-2.38-1.2c-1.12-0.6-2.47-1.39-4.06-2.39
				c-6.63-3.69-11.99-7.43-16.1-11.22c-5.21-4.88-7.81-11.12-7.81-18.7c0-7.18,2.46-13.11,7.39-17.8
				c4.85-4.49,11.29-6.73,19.32-6.73c9.24,0,16.93,3.14,23.08,9.42c1.12,1.3,0.98,2.89-0.42,4.79c-1.49,1.9-2.93,2.15-4.32,0.75
				c-5.51-5.39-11.67-8.08-18.48-8.08c-5.6,0-10.13,1.55-13.58,4.64c-3.74,3.09-5.6,7.28-5.6,12.56c0,7.08,4.15,13.41,12.45,19
				c0.56,0.4,3.96,2.44,10.21,6.13c4.2,2.3,7.77,4.51,10.7,6.66C420.1,58.14,422.45,60.21,424.23,62.2z"/>
			<path class="st5" d="M443.1,3.72c0-1.7,1.25-2.54,3.77-2.54c2.42,0,3.63,0.85,3.63,2.54v100.06c0,1.6-1.21,2.39-3.63,2.39
				c-2.51,0-3.77-0.8-3.77-2.39V3.72z"/>
			<path class="st5" d="M526.54,1.62c1.39,0,2.09,1.2,2.09,3.59c0,2.39-0.7,3.59-2.09,3.59h-28.31v94.98c0,1.6-1.21,2.39-3.63,2.39
				c-2.51,0-3.77-0.8-3.77-2.39V8.8h-27.62c-1.58,0-2.37-1.2-2.37-3.59c0-2.39,0.79-3.59,2.37-3.59H526.54z"/>
			<path class="st5" d="M539.02,105.87c-2.05,0-3.07-1.15-3.07-3.44V5.06c0-2.29,1.02-3.44,3.07-3.44h46.58
				c1.49,0,2.23,1.2,2.23,3.59c0,2.39-0.74,3.59-2.23,3.59h-42.26v41.13h38.91c1.58,0,2.37,1.2,2.37,3.59
				c0,2.39-0.79,3.59-2.37,3.59h-38.91v41.58h42.26c1.49,0,2.23,1.2,2.23,3.59c0,2.39-0.74,3.59-2.23,3.59H539.02z"/>
		</g>
	</g>
</g>
</svg>
